<mxfile host="app.diagrams.net" modified="2022-10-08T05:18:22.859Z" agent="5.0 (Macintosh; Intel Mac OS X 10_15_7) AppleWebKit/605.1.15 (KHTML, like Gecko) Version/16.0 Safari/605.1.15" etag="plAu1Ghz1FE7FW6uMjmx" version="20.3.6" type="github">
  <diagram id="nVapPGjOqCnH3LIAaoGB" name="Page-1">
    <mxGraphModel dx="1666" dy="830" grid="1" gridSize="10" guides="0" tooltips="1" connect="0" arrows="0" fold="1" page="1" pageScale="1" pageWidth="1100" pageHeight="850" math="0" shadow="0">
      <root>
        <mxCell id="0" />
        <mxCell id="1" parent="0" />
        <mxCell id="nTYNe7gcib0FNrsiwkBO-1" value="Person" style="text;html=1;align=center;verticalAlign=middle;resizable=0;points=[];autosize=1;strokeColor=none;fillColor=none;" vertex="1" parent="1">
          <mxGeometry x="30" y="15" width="60" height="30" as="geometry" />
        </mxCell>
        <mxCell id="nTYNe7gcib0FNrsiwkBO-2" value="" style="rounded=0;whiteSpace=wrap;html=1;" vertex="1" parent="1">
          <mxGeometry x="40" y="60" width="120" height="60" as="geometry" />
        </mxCell>
        <mxCell id="nTYNe7gcib0FNrsiwkBO-3" value="" style="rounded=0;whiteSpace=wrap;html=1;" vertex="1" parent="1">
          <mxGeometry x="160" y="60" width="120" height="60" as="geometry" />
        </mxCell>
        <mxCell id="nTYNe7gcib0FNrsiwkBO-4" value="" style="whiteSpace=wrap;html=1;" vertex="1" parent="1">
          <mxGeometry x="280" y="60" width="120" height="60" as="geometry" />
        </mxCell>
        <mxCell id="nTYNe7gcib0FNrsiwkBO-5" value="" style="whiteSpace=wrap;html=1;" vertex="1" parent="1">
          <mxGeometry x="400" y="60" width="120" height="60" as="geometry" />
        </mxCell>
        <mxCell id="nTYNe7gcib0FNrsiwkBO-6" value="" style="whiteSpace=wrap;html=1;" vertex="1" parent="1">
          <mxGeometry x="520" y="60" width="120" height="60" as="geometry" />
        </mxCell>
        <mxCell id="nTYNe7gcib0FNrsiwkBO-7" value="" style="whiteSpace=wrap;html=1;" vertex="1" parent="1">
          <mxGeometry x="640" y="60" width="120" height="60" as="geometry" />
        </mxCell>
        <mxCell id="nTYNe7gcib0FNrsiwkBO-8" value="" style="whiteSpace=wrap;html=1;" vertex="1" parent="1">
          <mxGeometry x="760" y="60" width="120" height="60" as="geometry" />
        </mxCell>
        <mxCell id="nTYNe7gcib0FNrsiwkBO-9" value="" style="whiteSpace=wrap;html=1;" vertex="1" parent="1">
          <mxGeometry x="880" y="60" width="120" height="60" as="geometry" />
        </mxCell>
        <mxCell id="nTYNe7gcib0FNrsiwkBO-11" value="" style="whiteSpace=wrap;html=1;" vertex="1" parent="1">
          <mxGeometry x="990" y="60" width="120" height="60" as="geometry" />
        </mxCell>
        <mxCell id="nTYNe7gcib0FNrsiwkBO-12" value="" style="whiteSpace=wrap;html=1;" vertex="1" parent="1">
          <mxGeometry x="1110" y="60" width="120" height="60" as="geometry" />
        </mxCell>
        <mxCell id="nTYNe7gcib0FNrsiwkBO-13" value="" style="whiteSpace=wrap;html=1;" vertex="1" parent="1">
          <mxGeometry x="1220" y="60" width="120" height="60" as="geometry" />
        </mxCell>
        <mxCell id="nTYNe7gcib0FNrsiwkBO-14" value="" style="whiteSpace=wrap;html=1;" vertex="1" parent="1">
          <mxGeometry x="1340" y="60" width="120" height="60" as="geometry" />
        </mxCell>
        <mxCell id="nTYNe7gcib0FNrsiwkBO-15" value="Student" style="text;html=1;align=center;verticalAlign=middle;resizable=0;points=[];autosize=1;strokeColor=none;fillColor=none;" vertex="1" parent="1">
          <mxGeometry x="30" y="155" width="60" height="30" as="geometry" />
        </mxCell>
        <mxCell id="nTYNe7gcib0FNrsiwkBO-16" value="" style="rounded=0;whiteSpace=wrap;html=1;" vertex="1" parent="1">
          <mxGeometry x="40" y="200" width="120" height="60" as="geometry" />
        </mxCell>
        <mxCell id="nTYNe7gcib0FNrsiwkBO-17" value="" style="whiteSpace=wrap;html=1;" vertex="1" parent="1">
          <mxGeometry x="160" y="200" width="120" height="60" as="geometry" />
        </mxCell>
        <mxCell id="nTYNe7gcib0FNrsiwkBO-18" value="" style="whiteSpace=wrap;html=1;" vertex="1" parent="1">
          <mxGeometry x="280" y="200" width="120" height="60" as="geometry" />
        </mxCell>
        <mxCell id="nTYNe7gcib0FNrsiwkBO-19" value="Faculty" style="text;html=1;align=center;verticalAlign=middle;resizable=0;points=[];autosize=1;strokeColor=none;fillColor=none;" vertex="1" parent="1">
          <mxGeometry x="30" y="305" width="60" height="30" as="geometry" />
        </mxCell>
        <mxCell id="nTYNe7gcib0FNrsiwkBO-20" value="" style="whiteSpace=wrap;html=1;" vertex="1" parent="1">
          <mxGeometry x="40" y="350" width="120" height="60" as="geometry" />
        </mxCell>
        <mxCell id="nTYNe7gcib0FNrsiwkBO-21" value="" style="whiteSpace=wrap;html=1;" vertex="1" parent="1">
          <mxGeometry x="160" y="350" width="120" height="60" as="geometry" />
        </mxCell>
        <mxCell id="nTYNe7gcib0FNrsiwkBO-22" value="" style="whiteSpace=wrap;html=1;" vertex="1" parent="1">
          <mxGeometry x="280" y="350" width="120" height="60" as="geometry" />
        </mxCell>
        <mxCell id="nTYNe7gcib0FNrsiwkBO-23" value="" style="whiteSpace=wrap;html=1;" vertex="1" parent="1">
          <mxGeometry x="400" y="350" width="120" height="60" as="geometry" />
        </mxCell>
        <mxCell id="nTYNe7gcib0FNrsiwkBO-24" value="" style="whiteSpace=wrap;html=1;" vertex="1" parent="1">
          <mxGeometry x="520" y="350" width="120" height="60" as="geometry" />
        </mxCell>
        <mxCell id="nTYNe7gcib0FNrsiwkBO-25" value="Grad Student" style="text;html=1;align=center;verticalAlign=middle;resizable=0;points=[];autosize=1;strokeColor=none;fillColor=none;" vertex="1" parent="1">
          <mxGeometry x="30" y="475" width="90" height="30" as="geometry" />
        </mxCell>
        <mxCell id="nTYNe7gcib0FNrsiwkBO-26" value="" style="whiteSpace=wrap;html=1;" vertex="1" parent="1">
          <mxGeometry x="40" y="520" width="120" height="60" as="geometry" />
        </mxCell>
        <mxCell id="nTYNe7gcib0FNrsiwkBO-27" value="" style="whiteSpace=wrap;html=1;" vertex="1" parent="1">
          <mxGeometry x="160" y="520" width="120" height="60" as="geometry" />
        </mxCell>
        <mxCell id="nTYNe7gcib0FNrsiwkBO-28" value="Grad Degree" style="text;html=1;align=center;verticalAlign=middle;resizable=0;points=[];autosize=1;strokeColor=none;fillColor=none;" vertex="1" parent="1">
          <mxGeometry x="30" y="620" width="90" height="30" as="geometry" />
        </mxCell>
        <mxCell id="nTYNe7gcib0FNrsiwkBO-29" value="" style="rounded=0;whiteSpace=wrap;html=1;" vertex="1" parent="1">
          <mxGeometry x="40" y="670" width="120" height="60" as="geometry" />
        </mxCell>
        <mxCell id="nTYNe7gcib0FNrsiwkBO-30" value="" style="whiteSpace=wrap;html=1;" vertex="1" parent="1">
          <mxGeometry x="160" y="670" width="120" height="60" as="geometry" />
        </mxCell>
        <mxCell id="nTYNe7gcib0FNrsiwkBO-31" value="" style="whiteSpace=wrap;html=1;" vertex="1" parent="1">
          <mxGeometry x="280" y="670" width="120" height="60" as="geometry" />
        </mxCell>
        <mxCell id="nTYNe7gcib0FNrsiwkBO-32" value="" style="whiteSpace=wrap;html=1;" vertex="1" parent="1">
          <mxGeometry x="400" y="670" width="120" height="60" as="geometry" />
        </mxCell>
        <mxCell id="nTYNe7gcib0FNrsiwkBO-33" value="Department" style="text;html=1;align=center;verticalAlign=middle;resizable=0;points=[];autosize=1;strokeColor=none;fillColor=none;" vertex="1" parent="1">
          <mxGeometry x="30" y="770" width="90" height="30" as="geometry" />
        </mxCell>
        <mxCell id="nTYNe7gcib0FNrsiwkBO-34" value="" style="whiteSpace=wrap;html=1;" vertex="1" parent="1">
          <mxGeometry x="40" y="820" width="120" height="60" as="geometry" />
        </mxCell>
        <mxCell id="nTYNe7gcib0FNrsiwkBO-35" value="" style="whiteSpace=wrap;html=1;" vertex="1" parent="1">
          <mxGeometry x="160" y="820" width="120" height="60" as="geometry" />
        </mxCell>
        <mxCell id="nTYNe7gcib0FNrsiwkBO-36" value="" style="whiteSpace=wrap;html=1;" vertex="1" parent="1">
          <mxGeometry x="280" y="820" width="120" height="60" as="geometry" />
        </mxCell>
        <mxCell id="nTYNe7gcib0FNrsiwkBO-37" value="Belongs" style="text;html=1;align=center;verticalAlign=middle;resizable=0;points=[];autosize=1;strokeColor=none;fillColor=none;" vertex="1" parent="1">
          <mxGeometry x="25" y="915" width="70" height="30" as="geometry" />
        </mxCell>
        <mxCell id="nTYNe7gcib0FNrsiwkBO-38" value="" style="whiteSpace=wrap;html=1;" vertex="1" parent="1">
          <mxGeometry x="40" y="960" width="120" height="60" as="geometry" />
        </mxCell>
        <mxCell id="nTYNe7gcib0FNrsiwkBO-39" value="" style="whiteSpace=wrap;html=1;" vertex="1" parent="1">
          <mxGeometry x="160" y="960" width="120" height="60" as="geometry" />
        </mxCell>
        <mxCell id="nTYNe7gcib0FNrsiwkBO-40" value="College" style="text;html=1;align=center;verticalAlign=middle;resizable=0;points=[];autosize=1;strokeColor=none;fillColor=none;" vertex="1" parent="1">
          <mxGeometry x="30" y="1060" width="60" height="30" as="geometry" />
        </mxCell>
        <mxCell id="nTYNe7gcib0FNrsiwkBO-41" value="" style="whiteSpace=wrap;html=1;" vertex="1" parent="1">
          <mxGeometry x="40" y="1110" width="120" height="60" as="geometry" />
        </mxCell>
        <mxCell id="nTYNe7gcib0FNrsiwkBO-42" value="" style="whiteSpace=wrap;html=1;" vertex="1" parent="1">
          <mxGeometry x="160" y="1110" width="120" height="60" as="geometry" />
        </mxCell>
        <mxCell id="nTYNe7gcib0FNrsiwkBO-43" value="" style="whiteSpace=wrap;html=1;" vertex="1" parent="1">
          <mxGeometry x="280" y="1110" width="120" height="60" as="geometry" />
        </mxCell>
        <mxCell id="nTYNe7gcib0FNrsiwkBO-45" value="" style="whiteSpace=wrap;html=1;" vertex="1" parent="1">
          <mxGeometry x="400" y="820" width="120" height="60" as="geometry" />
        </mxCell>
        <mxCell id="nTYNe7gcib0FNrsiwkBO-46" value="Course" style="text;html=1;align=center;verticalAlign=middle;resizable=0;points=[];autosize=1;strokeColor=none;fillColor=none;" vertex="1" parent="1">
          <mxGeometry x="30" y="1220" width="60" height="30" as="geometry" />
        </mxCell>
        <mxCell id="nTYNe7gcib0FNrsiwkBO-47" value="" style="whiteSpace=wrap;html=1;" vertex="1" parent="1">
          <mxGeometry x="40" y="1270" width="120" height="60" as="geometry" />
        </mxCell>
        <mxCell id="nTYNe7gcib0FNrsiwkBO-48" value="" style="whiteSpace=wrap;html=1;" vertex="1" parent="1">
          <mxGeometry x="160" y="1270" width="120" height="60" as="geometry" />
        </mxCell>
        <mxCell id="nTYNe7gcib0FNrsiwkBO-49" value="" style="whiteSpace=wrap;html=1;" vertex="1" parent="1">
          <mxGeometry x="280" y="1270" width="120" height="60" as="geometry" />
        </mxCell>
        <mxCell id="nTYNe7gcib0FNrsiwkBO-50" value="" style="whiteSpace=wrap;html=1;" vertex="1" parent="1">
          <mxGeometry x="400" y="1270" width="120" height="60" as="geometry" />
        </mxCell>
        <mxCell id="nTYNe7gcib0FNrsiwkBO-51" value="Section" style="text;html=1;align=center;verticalAlign=middle;resizable=0;points=[];autosize=1;strokeColor=none;fillColor=none;" vertex="1" parent="1">
          <mxGeometry x="30" y="1375" width="60" height="30" as="geometry" />
        </mxCell>
        <mxCell id="nTYNe7gcib0FNrsiwkBO-52" value="" style="whiteSpace=wrap;html=1;" vertex="1" parent="1">
          <mxGeometry x="40" y="1420" width="120" height="60" as="geometry" />
        </mxCell>
        <mxCell id="nTYNe7gcib0FNrsiwkBO-54" value="" style="whiteSpace=wrap;html=1;" vertex="1" parent="1">
          <mxGeometry x="160" y="1420" width="120" height="60" as="geometry" />
        </mxCell>
        <mxCell id="nTYNe7gcib0FNrsiwkBO-55" value="" style="whiteSpace=wrap;html=1;" vertex="1" parent="1">
          <mxGeometry x="280" y="1420" width="120" height="60" as="geometry" />
        </mxCell>
        <mxCell id="nTYNe7gcib0FNrsiwkBO-56" value="" style="whiteSpace=wrap;html=1;" vertex="1" parent="1">
          <mxGeometry x="400" y="1420" width="120" height="60" as="geometry" />
        </mxCell>
        <mxCell id="nTYNe7gcib0FNrsiwkBO-57" value="Transcript" style="text;html=1;align=center;verticalAlign=middle;resizable=0;points=[];autosize=1;strokeColor=none;fillColor=none;" vertex="1" parent="1">
          <mxGeometry x="30" y="1530" width="80" height="30" as="geometry" />
        </mxCell>
        <mxCell id="nTYNe7gcib0FNrsiwkBO-58" value="" style="whiteSpace=wrap;html=1;" vertex="1" parent="1">
          <mxGeometry x="40" y="1580" width="120" height="60" as="geometry" />
        </mxCell>
        <mxCell id="nTYNe7gcib0FNrsiwkBO-59" value="Registered" style="text;html=1;align=center;verticalAlign=middle;resizable=0;points=[];autosize=1;strokeColor=none;fillColor=none;" vertex="1" parent="1">
          <mxGeometry x="30" y="1680" width="80" height="30" as="geometry" />
        </mxCell>
        <mxCell id="nTYNe7gcib0FNrsiwkBO-60" value="" style="whiteSpace=wrap;html=1;" vertex="1" parent="1">
          <mxGeometry x="40" y="1730" width="120" height="60" as="geometry" />
        </mxCell>
        <mxCell id="nTYNe7gcib0FNrsiwkBO-61" value="" style="whiteSpace=wrap;html=1;" vertex="1" parent="1">
          <mxGeometry x="160" y="1580" width="120" height="60" as="geometry" />
        </mxCell>
        <mxCell id="nTYNe7gcib0FNrsiwkBO-62" value="" style="whiteSpace=wrap;html=1;" vertex="1" parent="1">
          <mxGeometry x="280" y="1580" width="120" height="60" as="geometry" />
        </mxCell>
        <mxCell id="nTYNe7gcib0FNrsiwkBO-63" value="" style="whiteSpace=wrap;html=1;" vertex="1" parent="1">
          <mxGeometry x="160" y="1730" width="120" height="60" as="geometry" />
        </mxCell>
        <mxCell id="nTYNe7gcib0FNrsiwkBO-64" value="Current_Section" style="text;html=1;align=center;verticalAlign=middle;resizable=0;points=[];autosize=1;strokeColor=none;fillColor=none;" vertex="1" parent="1">
          <mxGeometry x="30" y="1840" width="110" height="30" as="geometry" />
        </mxCell>
        <mxCell id="nTYNe7gcib0FNrsiwkBO-65" value="" style="whiteSpace=wrap;html=1;" vertex="1" parent="1">
          <mxGeometry x="40" y="1900" width="120" height="60" as="geometry" />
        </mxCell>
        <mxCell id="nTYNe7gcib0FNrsiwkBO-66" value="Committee" style="text;html=1;align=center;verticalAlign=middle;resizable=0;points=[];autosize=1;strokeColor=none;fillColor=none;" vertex="1" parent="1">
          <mxGeometry x="30" y="2015" width="80" height="30" as="geometry" />
        </mxCell>
        <mxCell id="nTYNe7gcib0FNrsiwkBO-67" value="" style="whiteSpace=wrap;html=1;" vertex="1" parent="1">
          <mxGeometry x="40" y="2070" width="120" height="60" as="geometry" />
        </mxCell>
        <mxCell id="nTYNe7gcib0FNrsiwkBO-68" value="Instructor_Researcher" style="text;html=1;align=center;verticalAlign=middle;resizable=0;points=[];autosize=1;strokeColor=none;fillColor=none;" vertex="1" parent="1">
          <mxGeometry x="40" y="2180" width="140" height="30" as="geometry" />
        </mxCell>
        <mxCell id="nTYNe7gcib0FNrsiwkBO-69" value="" style="whiteSpace=wrap;html=1;" vertex="1" parent="1">
          <mxGeometry x="40" y="2240" width="120" height="60" as="geometry" />
        </mxCell>
        <mxCell id="nTYNe7gcib0FNrsiwkBO-70" value="Grant" style="text;html=1;align=center;verticalAlign=middle;resizable=0;points=[];autosize=1;strokeColor=none;fillColor=none;" vertex="1" parent="1">
          <mxGeometry x="25" y="2355" width="50" height="30" as="geometry" />
        </mxCell>
        <mxCell id="nTYNe7gcib0FNrsiwkBO-71" value="" style="whiteSpace=wrap;html=1;" vertex="1" parent="1">
          <mxGeometry x="40" y="2400" width="120" height="60" as="geometry" />
        </mxCell>
        <mxCell id="nTYNe7gcib0FNrsiwkBO-72" value="" style="whiteSpace=wrap;html=1;" vertex="1" parent="1">
          <mxGeometry x="160" y="2400" width="120" height="60" as="geometry" />
        </mxCell>
        <mxCell id="nTYNe7gcib0FNrsiwkBO-73" value="" style="whiteSpace=wrap;html=1;" vertex="1" parent="1">
          <mxGeometry x="280" y="2400" width="120" height="60" as="geometry" />
        </mxCell>
        <mxCell id="nTYNe7gcib0FNrsiwkBO-74" value="" style="whiteSpace=wrap;html=1;" vertex="1" parent="1">
          <mxGeometry x="400" y="2400" width="120" height="60" as="geometry" />
        </mxCell>
        <mxCell id="nTYNe7gcib0FNrsiwkBO-75" value="" style="whiteSpace=wrap;html=1;" vertex="1" parent="1">
          <mxGeometry x="500" y="2400" width="120" height="60" as="geometry" />
        </mxCell>
        <mxCell id="nTYNe7gcib0FNrsiwkBO-76" value="Supports" style="text;html=1;align=center;verticalAlign=middle;resizable=0;points=[];autosize=1;strokeColor=none;fillColor=none;" vertex="1" parent="1">
          <mxGeometry x="25" y="2505" width="70" height="30" as="geometry" />
        </mxCell>
        <mxCell id="nTYNe7gcib0FNrsiwkBO-77" value="" style="whiteSpace=wrap;html=1;" vertex="1" parent="1">
          <mxGeometry x="40" y="2550" width="120" height="60" as="geometry" />
        </mxCell>
        <mxCell id="nTYNe7gcib0FNrsiwkBO-78" value="" style="whiteSpace=wrap;html=1;" vertex="1" parent="1">
          <mxGeometry x="160" y="2550" width="120" height="60" as="geometry" />
        </mxCell>
        <mxCell id="nTYNe7gcib0FNrsiwkBO-79" value="" style="whiteSpace=wrap;html=1;" vertex="1" parent="1">
          <mxGeometry x="280" y="2550" width="120" height="60" as="geometry" />
        </mxCell>
        <mxCell id="nTYNe7gcib0FNrsiwkBO-80" value="" style="whiteSpace=wrap;html=1;" vertex="1" parent="1">
          <mxGeometry x="400" y="2550" width="120" height="60" as="geometry" />
        </mxCell>
        <mxCell id="nTYNe7gcib0FNrsiwkBO-81" value="" style="whiteSpace=wrap;html=1;" vertex="1" parent="1">
          <mxGeometry x="520" y="2550" width="120" height="60" as="geometry" />
        </mxCell>
      </root>
    </mxGraphModel>
  </diagram>
</mxfile>
